<?xml version="1.0" encoding="UTF-8"?><svg id="Layer_2" xmlns="http://www.w3.org/2000/svg" viewBox="0 0 165.26 165.26"><defs><style>.cls-1{fill:#ffffff;stroke-width:0px;}</style></defs><g id="Layer_1-2"><path class="cls-1" d="M82.63,0C37,0,0,36.99,0,82.63s37,82.63,82.63,82.63,82.63-37,82.63-82.63S128.26,0,82.63,0ZM4.88,82.63C4.88,39.69,39.69,4.88,82.63,4.88c29.09,0,54.42,15.98,67.76,39.64-1.35-.14-2.82-.08-4.26.16-3.82.65-7.67,2.47-9.85,3.88-1.88,1.15-4.38,2.96-6,4.52-.89-1.36-2.65-2.01-4.98-1.61-5.15.88-9.98,5.77-15.04,12.17-3.83,4.97-7.84,11.07-11.97,16.46-2.13-2.35-4.31-4.32-5.72-6.78,3.38-3.29,5.88-6.67,6.68-10.63.58-3.8-1.48-5.78-3.88-5.38-4.67.8-7.34,6.06-7.48,10.27-.09,2.35.73,5.05,1.7,7.1-2.27,1.87-4.58,3.49-6.95,5.5-2.73,2.36-5.12,4.71-6.65,7.09-.7-.02-1.21-.45-1.34-1.21-.6-4.17,4.1-13.18,8.7-21.48,4.15-7.52,10.74-17.67,15.17-24.2,2.14-3.03,2.88-4.77,3.31-6.34.35-1.33-.07-3.11-.82-2.75-.52.32.38.86-.77,2.91-1.04,2.03-3.09,4.23-6.64,6.45-3.66,2.24-8.21,3.37-11.22,4-2.11.48-5.41.81-8.3.84.45-.77.82-1.3,1.26-2.06,1.27-2.07,1.34-3-.38-2.94-1.14.08-2.39,1.56-3.25,2.63-.67.81-1.33,1.73-1.79,2.39-5.19.08-14.14-.25-23.52,1.01-17.63,2.32-26.68,10.91-26.03,21.55.45,6.05,4.8,11.2,11.64,12,1.29.13,2.06-.12,2.11-.48.05-.36-.49-.15-1.44-.34-7.61-1.24-9.91-6.63-9.78-11.27.41-10.47,11.41-17.09,23.66-19.18,9.77-1.67,16.98-2.09,22.54-2-9.35,12.23-17.51,24.02-26.56,33.31-10.3,10.78-23.43,21.17-33.08,22.82l-1.73.67c-1.86-6.66-2.88-13.68-2.88-20.94ZM124,65.33c.88-1.83,1.78-3.55,2.69-5.11.12.03.22.06.36.07,1.89.12,3.41-1.97,3.79-4.01,2.5,1.84,4.1,5.42,3.02,9.92-1.2,5.18-5.82,9.2-10.71,10.38-.71-.11-1.42-.22-2.34-.18-1.03.06-1.7.18-2.15.25,1.73-3.41,3.45-7.52,5.35-11.32ZM109.33,82.97c-1.34,2.61-2.59,4.89-3.77,6.91-1.54-3.71-4.13-6.58-6.37-8.83,4.05-5.13,8.28-11.39,12.14-16.24,5.9-7.29,9.22-10.2,11.79-10.27,1.46-.13,2.12.87,2.1,2.23,0,.47.03.95.08,1.41-4.44,5.08-9.87,13.16-15.97,24.79ZM95.53,83.4c-4.45,4.95-9.57,8.9-12.56,9.41-1.55.27-3.38-.29-3.28-2.64.02-1.34.42-2.68,1.17-4.09,1.17-1.01,2.22-2.08,3.02-2.98,2.42-2.73,4.14-4.87,5.37-6.47.16-.22.3-.42.42-.61.16-.15.3-.29.46-.44,1.45,2.71,3.38,5.34,5.4,7.83ZM90.87,66.95c.12-3.59,2.08-7.25,4.6-7.68,1.8-.31,2.8,1.25,2.45,3.53-.63,3.56-3.03,6.8-5.75,9.6-.9-1.69-1.33-3.46-1.3-5.44ZM77.6,58.5c-6.67,7.61-14.32,17.01-18.03,21.69,4.26-8.24,9.77-24.67,13.93-33.47,2.87-.14,6.16-.47,8.75-.92,3.35-.69,7.43-1.85,10.47-3.64l.02.11c-5.15,5.04-9.83,10.11-15.15,16.22ZM82.63,160.38c-35.68,0-65.72-24.04-74.87-56.79,11.68-2,25.86-12.28,35.56-22.48,8.75-9,20.87-25.99,24.34-30.74l.11-.02c-4.78,8.56-12.79,29.34-17.75,39.55-.52,1.01-.85,2.46.18,3.09,1.12.5,1.53-.49,2.67-1.96,5.37-7.15,10.88-14.11,18.15-22.98,6.32-7.67,12.88-15.26,19.45-22.16l.11-.02c-4.9,5.81-11.75,16.45-15.25,23.06-3.77,7-6.47,12.89-5.66,16.92.63,3.04,2.71,3.78,5.28,3.37-.42.98-.67,1.98-.71,2.97-.1,3.71,2.58,4.98,5.21,4.53,6.1-1.04,12.27-6.78,17-12.26,1.32,1.79,2.47,3.81,3.36,5.95-.02,0-.05-.02-.05-.02,0,0,1.3,2.71,1.27,5.82-.01,1.18-.26,2.2-.57,3.02h6.13c.17-.67.32-1.51.38-2.58.01-.24-.02-.48-.08-.71-.01-.32-.03-.63-.06-.93,2.92-3,5.92-6.89,9.04-12.36.71-1.28,1.82-3.55,2.42-4.8.49.15,1.09.28,2.12.21.81-.02,1.8-.31,2.45-.53.98.3,2.23.89,2.46,2.24.48,2.11-1.07,4.57-2.74,7.63-1.49,2.8-3.05,6.53-2.46,9.32.46,2.69,2.57,4.19,6.16,3.57,3.48-.59,6.8-3.47,9.62-6.61,2.33-2.59,3.95-4.6,5.07-6.18.56-.79.82-1.3.55-1.48-.39-.28-.88.27-1.44,1.05-1.04,1.34-2.57,3.22-4.62,5.41-3.23,3.44-5.56,5.34-7.36,5.65-1.57.27-2.31-.65-2.46-1.54-.4-2.36,1.22-5.06,2.7-8.55.85-1.76,1.76-4.58,1.16-6.78-.61-2.21-2.69-3.58-4.74-4.05l-.02-.11c4.61-.79,12.06-4.49,13.56-10.64,1.66-7.22-4.58-11.24-7.21-12.41,1.18-1.24,3.62-3.16,5.92-4.59,2.5-1.58,6.26-3.26,9.18-3.76,1.77-.3,3.41-.32,4.82-.11,5.98,11.01,9.37,23.63,9.37,37.03,0,42.94-34.81,77.75-77.75,77.75Z"/><path class="cls-1" d="M70.82,131.24c-5.78,1.31-9.3.09-11.28-1.49-1.51-1.28-1.53-2.29-2.11-2.16-.49.51.01,1.82,1.13,3.19,1.4,1.71,5.85,4.34,12.78,2.77,6.68-1.52,13.45-5.21,18.2-10.19h-6.16c-3.17,3.89-7.49,6.73-12.56,7.88Z"/><polygon class="cls-1" points="39.54 114.32 37.68 102.87 34.15 102.87 34.15 119 36.36 119 36.36 107.59 38.25 119 40.65 119 42.39 107.44 42.39 119 44.79 119 44.79 102.87 41.27 102.87 39.54 114.32"/><path class="cls-1" d="M54.87,102.87h-3.71l-2.59,16.13h2.33l.44-2.93h3.11l.44,2.93h2.55l-2.58-16.13ZM51.68,113.88l1.22-8.16,1.22,8.16h-2.44Z"/><path class="cls-1" d="M63.78,112.43h.87c1.16,0,1.66.56,1.66,2.06v2.53c0,1.31.1,1.57.24,1.98h2.58c-.26-.6-.28-1.18-.28-1.96v-2.49c0-1.69-.42-2.9-1.68-3.44,1.13-.52,1.66-1.61,1.66-3.26v-1.27c0-2.49-1.13-3.71-3.76-3.71h-3.82v16.13h2.53v-6.57ZM63.78,105.17h1.23c.9,0,1.29.51,1.29,1.66v1.59c0,1.3-.57,1.71-1.52,1.71h-.99v-4.96Z"/><polygon class="cls-1" points="75.66 113.81 76.42 112.48 78.92 119 81.51 119 78.01 110.03 81.51 102.87 79.18 102.87 75.66 110.19 75.66 102.87 73.13 102.87 73.13 119 75.66 119 75.66 113.81"/><polygon class="cls-1" points="85.29 119 92.2 119 92.2 116.7 87.82 116.7 87.82 111.97 91.3 111.97 91.3 109.66 87.82 109.66 87.82 105.17 92.2 105.17 92.2 102.87 85.29 102.87 85.29 119"/><polygon class="cls-1" points="95.7 105.17 98.34 105.17 98.34 119 100.88 119 100.88 105.17 103.53 105.17 103.53 102.87 95.7 102.87 95.7 105.17"/><rect class="cls-1" x="107.3" y="102.87" width="2.53" height="16.13"/><polygon class="cls-1" points="120.06 112.52 117.45 102.87 114.27 102.87 114.27 119 116.55 119 116.55 107.32 119.71 119 122.31 119 122.31 102.87 120.06 102.87 120.06 112.52"/><path class="cls-1" d="M130.32,102.68c-2.49,0-3.78,1.48-3.78,4.06v8.39c0,2.58,1.29,4.05,3.78,4.05s3.79-1.47,3.79-4.05v-5.12h-3.56v2.3h1.16v2.97c0,1.16-.51,1.57-1.32,1.57s-1.31-.41-1.31-1.57v-8.7c0-1.16.51-1.59,1.31-1.59s1.32.43,1.32,1.59v1.72h2.4v-1.56c0-2.58-1.3-4.06-3.79-4.06Z"/></g></svg>