<svg width="71" height="71" viewBox="0 0 71 71" fill="none" xmlns="http://www.w3.org/2000/svg">
<foreignObject x="-6" y="-6" width="83" height="83"><div xmlns="http://www.w3.org/1999/xhtml" style="backdrop-filter:blur(3px);clip-path:url(#bgblur_0_1319_346_clip_path);height:100%;width:100%"></div></foreignObject><rect data-figma-bg-blur-radius="6" x="0.5" y="0.5" width="70" height="70" rx="35" fill="#F68D2E" stroke="#F68D2E"/>
<path d="M43.4964 47.4325C45.4025 48.1433 47.5732 48.1844 49.4957 47.5668C53.2372 46.3646 55.4436 42.4499 54.8187 38.7834C54.5871 37.4248 53.9751 36.1273 53.0563 35.0689C52.001 33.8536 50.5546 33.2744 49.1011 32.6246C48.4347 32.3271 47.7719 31.9206 47.3908 31.2989C46.9876 30.6409 47.0162 29.8341 47.137 29.1054C47.3737 27.6838 48.0422 26.5089 48.547 25.173C48.6235 24.9701 48.6928 24.7583 48.6785 24.5437C48.6542 24.175 48.4626 24.0276 48.2166 24.0036C47.9214 23.9748 47.5481 24.1236 47.2915 24.2792C46.0681 25.0215 45.0622 26.1196 44.0712 27.119C43.0302 28.1691 42.0393 29.2713 41.187 30.4702C38.6188 34.0853 37.3769 38.9952 39.1179 43.1703C39.9401 45.1424 41.4222 46.6593 43.4971 47.4332L43.4964 47.4325Z" fill="white"/>
<path d="M18.8088 43.1696C19.631 45.1417 21.1131 46.6586 23.1879 47.4325C25.094 48.1433 27.2647 48.1844 29.1872 47.5668C32.9286 46.3646 35.135 42.4499 34.5101 38.7834C34.2785 37.4248 33.6665 36.1273 32.7477 35.0689C31.6925 33.8536 30.2461 33.2744 28.7926 32.6246C28.1262 32.3271 27.4634 31.9206 27.0824 31.2989C26.6791 30.6409 26.7077 29.8341 26.8285 29.1054C27.0652 27.6838 27.7337 26.5089 28.2385 25.173C28.315 24.9701 28.3843 24.7583 28.37 24.5437C28.3457 24.175 28.1541 24.0276 27.9081 24.0036C27.6129 23.9748 27.2396 24.1236 26.983 24.2792C25.7597 25.0215 24.7537 26.1196 23.7628 27.119C22.7218 28.1691 21.7308 29.2713 20.8786 30.4702C18.3104 34.0846 17.0685 38.9952 18.8088 43.1696Z" fill="white"/>
<defs>
<clipPath id="bgblur_0_1319_346_clip_path" transform="translate(6 6)"><rect x="0.5" y="0.5" width="70" height="70" rx="35"/>
</clipPath></defs>
</svg>
